# xmcd
#
# Track frame offsets: 
#        150
#        18494
#        44185
#        63755
#        85880
#        107181
#        132358
#        151770
#        173871
#        199757
#        222250
#        246189
#        268356
#        289929
#        312885
#        329897
#
# Disc length: 4780 seconds
#
# Revision: 1
# Processed by: cddbd v1.5.2PL0 Copyright (c) Steve Scherf et al.
# Submitted via: ExactAudioCopyFreeDBPlugin 1.0
#
DISCID=f912aa10
DTITLE=夏韶聲  - 【諳】最
DYEAR=2010
DGENRE=Acoustic
TTITLE0=童年時
TTITLE1=交义點
TTITLE2=追憶
TTITLE3=最愛是誰 – Live Version
TTITLE4=空凳
TTITLE5=幻影 – Live Version
TTITLE6=等 – Live Version
TTITLE7=永不放棄
TTITLE8=結他低泣時
TTITLE9=假如 – Live Version
TTITLE10=情人– Live Version
TTITLE11=車站 (蘇芮合唱)
TTITLE12=獅子山下
TTITLE13=諳
TTITLE14=出走 – Live Version
TTITLE15=說不出的未來 – Live Version
EXTD=
EXTT0=
EXTT1=
EXTT2=
EXTT3=
EXTT4=
EXTT5=
EXTT6=
EXTT7=
EXTT8=
EXTT9=
EXTT10=
EXTT11=
EXTT12=
EXTT13=
EXTT14=
EXTT15=
PLAYORDER=
